<?xml version="1.0" encoding="UTF-8"?>
<svg xmlns="http://www.w3.org/2000/svg" xmlns:xlink="http://www.w3.org/1999/xlink" viewBox="0 0 50 50" width="50px" height="50px">
<g id="surface103780086">
<path style=" stroke:none;fill-rule:nonzero;fill:rgb(94.117647%,94.117647%,94.117647%);fill-opacity:1;" d="M 25 6.25 C 19.835938 6.25 15.625 10.460938 15.625 15.625 C 15.625 20.789062 19.835938 25 25 25 C 30.164062 25 34.375 20.789062 34.375 15.625 C 34.375 10.460938 30.164062 6.25 25 6.25 Z M 25 25 C 16.394531 25 9.375 32.019531 9.375 40.625 L 12.5 40.625 C 12.5 33.703125 18.078125 28.125 25 28.125 C 31.921875 28.125 37.5 33.703125 37.5 40.625 L 40.625 40.625 C 40.625 32.019531 33.605469 25 25 25 Z M 25 9.375 C 28.46875 9.375 31.25 12.160156 31.25 15.625 C 31.25 19.09375 28.46875 21.875 25 21.875 C 21.535156 21.875 18.75 19.09375 18.75 15.625 C 18.75 12.160156 21.535156 9.375 25 9.375 Z M 25 9.375 "/>
</g>
</svg>
